<svg xmlns="http://www.w3.org/2000/svg" viewBox="2642.889 1344.709 144.807 135.601">
  <defs>
    <style>
      .cls-1 {
        fill: #fff;
      }

      .cls-2 {
        fill: none;
        stroke: #fff;
        stroke-miterlimit: 10;
        stroke-width: 0.843px;
      }
    </style>
  </defs>
  <g id="Group_6" data-name="Group 6" transform="translate(2643.474 1345.095)">
    <path id="Path_9" data-name="Path 9" class="cls-1" d="M20.665,35.7l-3.9,13.315v7.469H11.735V49.015L8,35.7h4.871c.812,4.059,1.137,6.82,1.3,8.281q.487-3.41,1.461-8.281Z" transform="translate(4.016 21.456)"/>
    <path id="Path_10" data-name="Path 10" class="cls-1" d="M28.8,48.065a29.056,29.056,0,0,1-.162,4.384,7.655,7.655,0,0,1-.974,2.436,5.275,5.275,0,0,1-2.111,1.624,8.655,8.655,0,0,1-3.085.65,7.866,7.866,0,0,1-2.923-.487,5.275,5.275,0,0,1-2.111-1.624,5.5,5.5,0,0,1-.974-2.436,31.61,31.61,0,0,1-.162-4.547V44.493a29.057,29.057,0,0,1,.162-4.384,7.655,7.655,0,0,1,.974-2.436,5.275,5.275,0,0,1,2.111-1.624,8.655,8.655,0,0,1,3.085-.65,7.866,7.866,0,0,1,2.923.487,5.275,5.275,0,0,1,2.111,1.624,5.5,5.5,0,0,1,.974,2.436,31.609,31.609,0,0,1,.162,4.547Zm-5.521-6.82a4.111,4.111,0,0,0-.162-1.786c-.162-.325-.325-.325-.65-.325a.844.844,0,0,0-.649.325c-.162.162-.162.812-.162,1.949V51.15a7.38,7.38,0,0,0,.162,2.273c.162.325.325.487.649.487s.65-.162.65-.487a7.381,7.381,0,0,0,.162-2.273Z" transform="translate(9.193 21.269)"/>
    <path id="Path_11" data-name="Path 11" class="cls-1" d="M37.541,35.762V49.727a15.057,15.057,0,0,1-.162,3.248,5.487,5.487,0,0,1-.974,1.949,4.433,4.433,0,0,1-1.949,1.461,7.866,7.866,0,0,1-2.923.487,6.838,6.838,0,0,1-3.248-.65A5.6,5.6,0,0,1,26.174,54.6a3.42,3.42,0,0,1-.812-2.111,30.369,30.369,0,0,1-.162-4.547V35.6h5.358V51.188a4.57,4.57,0,0,0,.162,1.786c.162.325.325.325.65.325s.487-.162.65-.487a5.6,5.6,0,0,0,.162-1.949V35.6h5.358Z" transform="translate(14.744 21.394)"/>
    <path id="Path_12" data-name="Path 12" class="cls-1" d="M34.162,35.7h3.9a32.515,32.515,0,0,1,5.2.325,3.506,3.506,0,0,1,2.273,1.461c.65.812.812,2.111.812,3.9,0,1.624-.162,2.76-.65,3.248a3.421,3.421,0,0,1-2.436.974,3.592,3.592,0,0,1,2.111,1.137c.325.487.65.812.65,1.3a12.509,12.509,0,0,1,.162,3.085v5.521H41.145V49.664a5.017,5.017,0,0,0-.325-2.111c-.162-.325-.65-.325-1.461-.325v9.418H34V35.7Zm5.358,3.572v4.709a2.515,2.515,0,0,0,1.3-.325c.325-.162.325-.65.325-1.624V40.9a2.1,2.1,0,0,0-.325-1.3c-.162-.325-.65-.325-1.3-.325" transform="translate(20.234 21.456)"/>
    <path id="Path_13" data-name="Path 13" class="cls-1" d="M57.716,35.7V56.484H53.007l-2.76-9.418v9.418H45.7V35.7h4.547l2.923,9.255V35.7Z" transform="translate(27.531 21.456)"/>
    <path id="Path_14" data-name="Path 14" class="cls-1" d="M64.254,35.7,67.34,56.484H61.819l-.325-3.735H59.546l-.325,3.735H53.7L56.46,35.7Zm-2.76,13.315c-.325-2.436-.487-5.2-.812-8.768-.487,4.059-.974,6.82-.974,8.768Z" transform="translate(32.522 21.456)"/>
    <path id="Path_15" data-name="Path 15" class="cls-1" d="M79.425,35.7V56.484H74.716V42.357L72.767,56.484h-3.41l-1.949-13.8v13.8H62.7V35.7h6.982c.162,1.3.487,2.76.65,4.384l.812,5.358,1.3-9.743Z" transform="translate(38.135 21.456)"/>
    <path id="Path_16" data-name="Path 16" class="cls-1" d="M74.3,35.7h9.093v4.059H79.821v4.059h3.248v3.9H79.821v4.547h3.9v4.222H74.3Z" transform="translate(45.371 21.456)"/>
    <path id="Path_17" data-name="Path 17" class="cls-2" d="M.6,29.1H143.978a10.352,10.352,0,0,1-.325,1.137c-1.949,6.17-4.059,12.341-5.846,18.511a5.351,5.351,0,0,0,0,2.273c1.949,6.17,3.9,12.5,6.008,18.673.162.325.162.649.325.974H.6c.812-2.76,1.786-5.358,2.6-7.956C4.5,58.652,5.8,54.755,6.933,50.7a2.239,2.239,0,0,0,0-1.461C4.984,42.9,2.873,36.732.925,30.4.762,30.074.762,29.587.6,29.1Z" transform="translate(-0.6 17.34)"/>
    <path id="Path_18" data-name="Path 18" class="cls-2" d="M9.988,56.8h9.418c.325,0,.812.487.974.812A54.024,54.024,0,0,0,29.8,69.952,52.829,52.829,0,0,0,60.325,85.216c15.263,1.949,28.9-2.111,40.756-11.853A52.415,52.415,0,0,0,114.4,57.45a1.079,1.079,0,0,1,.812-.65h9.418c.487,2.273.974,4.222,1.461,6.333.649,2.6,0,3.9-2.6,4.871-1.624.487-3.248.974-4.709,1.461a3.656,3.656,0,0,0-2.6,3.41c0,1.624,0,3.248-.162,5.034-.162,2.6-1.3,3.41-3.9,3.572H107.9c-2.273,0-3.41.812-4.059,2.923-.487,1.3-.65,2.76-1.137,4.059-.812,2.76-2.111,3.572-5.034,2.76-1.461-.325-3.085-.812-4.547-1.137a3.167,3.167,0,0,0-3.572,1.461,30.164,30.164,0,0,0-1.786,3.085,13.544,13.544,0,0,1-1.3,1.949c-1.137,1.461-2.273,1.786-3.9.974-1.3-.65-2.6-1.461-3.9-2.111-2.6-1.461-3.9-1.3-6.008.812-1.137.974-2.111,2.111-3.248,3.085a3.04,3.04,0,0,1-4.222,0c-1.137-.974-2.273-2.111-3.248-3.085-2.111-2.111-3.248-2.273-6.008-.812l-3.41,1.949c-2.273,1.137-3.572.812-4.871-1.3l-1.949-3.41c-1.461-2.6-2.76-3.085-5.521-2.273a37.4,37.4,0,0,1-4.547.974,2.844,2.844,0,0,1-3.572-2.111,39.852,39.852,0,0,1-1.3-4.709c-.812-2.6-1.786-3.248-4.384-3.248-1.624,0-3.41,0-5.034-.162a2.67,2.67,0,0,1-2.6-2.6c-.162-1.949-.162-3.735-.162-5.683A3.473,3.473,0,0,0,16,69.3c-1.461-.487-3.085-.812-4.547-1.3-2.76-.812-3.41-2.111-2.76-4.871.325-.974.487-1.949.812-3.085C9.663,59.073,9.826,58.1,9.988,56.8Z" transform="translate(4.301 34.618)"/>
    <path id="Path_19" data-name="Path 19" class="cls-2" d="M10.175,43.53q-.731-3.166-1.461-5.846c-.812-3.085,0-4.384,3.085-5.2,1.461-.325,2.76-.812,4.222-1.137a3.207,3.207,0,0,0,2.436-3.41c0-1.786,0-3.735.162-5.521a2.876,2.876,0,0,1,2.76-2.923,45.631,45.631,0,0,1,4.709-.162c2.923,0,3.9-.812,4.709-3.572.325-1.3.65-2.6.974-3.735.812-2.436,1.786-3.085,4.222-2.6a39.578,39.578,0,0,1,4.222.974c2.76.65,3.9.162,5.358-2.111.65-1.137,1.3-2.273,1.949-3.248,1.461-2.436,2.923-2.76,5.358-1.461a32.2,32.2,0,0,0,3.248,1.786c2.436,1.3,3.735,1.137,5.846-.812,1.137-.974,2.111-2.111,3.248-3.085,1.461-1.3,2.76-1.3,4.384,0,1.137.974,2.111,2.111,3.248,3.085C74.963,6.508,76.1,6.67,78.7,5.371c1.3-.65,2.6-1.624,3.9-2.273a3,3,0,0,1,4.222,1.137c.812,1.137,1.461,2.436,2.273,3.735,1.624,2.6,2.6,3.085,5.521,2.273,1.461-.325,2.923-.812,4.547-1.137a2.909,2.909,0,0,1,3.41,1.949c.487,1.3.812,2.76,1.3,4.222.974,3.248,1.786,4.059,5.2,4.059a42.546,42.546,0,0,1,4.547.162c1.624.162,2.436.974,2.6,2.76s.162,3.735.162,5.521a3.653,3.653,0,0,0,2.6,3.572c1.461.487,3.085.812,4.709,1.3,2.6.812,3.248,2.111,2.6,4.709-.487,1.949-.974,4.059-1.461,6.17H118.8c-1.3,0-2.6.325-3.572-.162s-1.3-1.949-1.949-2.923C105.165,27.454,93.636,19.011,78.7,15.763,61.81,12.191,46.385,16.25,33.07,27.292a50.305,50.305,0,0,0-12.5,15.426c-.162.325-.65.812-.974.812Z" transform="translate(4.277 -0.5)"/>
    <path id="Path_20" data-name="Path 20" class="cls-2" d="M28.2,66.756c.974-.974,1.786-1.786,2.76-2.6a1.47,1.47,0,0,0,.487-1.624c-.325-1.137-.325-2.273-.65-3.735,1.3.65,2.273,1.3,3.41,1.786a1.793,1.793,0,0,0,1.3,0c1.137-.487,2.111-1.137,3.41-1.786a36.45,36.45,0,0,0-.487,3.9,1.844,1.844,0,0,0,.487,1.3c.812.974,1.786,1.786,2.76,2.76a27.862,27.862,0,0,0-3.9.65,2.913,2.913,0,0,0-1.137.812c-.65,1.137-1.137,2.273-1.786,3.572-.65-1.3-1.137-2.273-1.624-3.41-.325-.649-.649-.974-1.3-.974C30.8,67.244,29.661,67.081,28.2,66.756Z" transform="translate(16.616 35.865)"/>
    <path id="Path_21" data-name="Path 21" class="cls-2" d="M60.72,71.565c-.162-.325-.325-.487-.325-.649-.812-3.085-2.923-4.222-5.846-4.059-.162,0-.162,0-.649-.162.974-.974,1.786-1.786,2.76-2.6a1.31,1.31,0,0,0,.487-1.461c-.325-1.137-.325-2.273-.65-3.735,1.137.65,2.273,1.137,3.248,1.624a1.711,1.711,0,0,0,1.949,0L64.942,58.9c-.162,1.3-.325,2.273-.487,3.248a2.084,2.084,0,0,0,.812,2.273c.812.65,1.624,1.461,2.6,2.273-1.624.325-2.76.325-3.9.649a2.071,2.071,0,0,0-1.137.812A19.448,19.448,0,0,0,60.72,71.565Z" transform="translate(32.646 35.927)"/>
    <path id="Path_22" data-name="Path 22" class="cls-2" d="M52.479,61.9a23.292,23.292,0,0,1-.65,3.572,1.734,1.734,0,0,0,.487,1.786c.812.812,1.624,1.624,2.436,2.6-.974.162-1.949.325-3.085.487-.974.162-1.786.325-2.111,1.461-.325.974-.974,1.949-1.461,3.085A17.318,17.318,0,0,1,46.634,71.8c-.325-.974-.974-1.137-1.786-1.3a28.671,28.671,0,0,1-3.248-.65c.812-.649,1.461-1.461,2.273-2.111a1.8,1.8,0,0,0,.65-2.273c-.162-.974-.325-2.111-.65-3.41,1.3.65,2.273,1.137,3.41,1.786a1.469,1.469,0,0,0,1.624,0A38.73,38.73,0,0,0,52.479,61.9Z" transform="translate(24.974 37.799)"/>
    <path id="Path_23" data-name="Path 23" class="cls-2" d="M51.542,26.528c-1.3-.649-2.436-1.3-3.572-1.786a1.793,1.793,0,0,0-1.3,0c-1.137.487-2.273,1.137-3.572,1.786.162-1.3.487-2.436.65-3.735a3.133,3.133,0,0,0-.487-1.624,21.515,21.515,0,0,0-2.76-2.6,24.328,24.328,0,0,0,3.9-.65,2.071,2.071,0,0,0,1.137-.812A32.7,32.7,0,0,0,47.32,13.7l1.624,3.248c.325.65.65,1.137,1.461,1.137a31.165,31.165,0,0,1,3.572.487,34.273,34.273,0,0,1-2.436,2.436,1.864,1.864,0,0,0-.65,1.949A23.293,23.293,0,0,1,51.542,26.528Z" transform="translate(24.288 7.734)"/>
    <path id="Path_24" data-name="Path 24" class="cls-2" d="M30.8,29.465c.162-1.461.487-2.6.65-3.735a1.844,1.844,0,0,0-.487-1.3,22.121,22.121,0,0,0-2.76-2.76c1.3-.162,2.436-.325,3.572-.487a1.866,1.866,0,0,0,1.461-.974c.487-1.137.974-2.111,1.624-3.41a30.277,30.277,0,0,1,1.624,3.248c.325.812.812.974,1.624,1.137A15.955,15.955,0,0,1,41.677,22c-.974.812-1.786,1.624-2.6,2.436a2.159,2.159,0,0,0-.487,1.3c.162,1.137.325,2.436.65,3.9-1.3-.649-2.273-1.3-3.41-1.786a2.253,2.253,0,0,0-1.461,0A22.444,22.444,0,0,0,30.8,29.465Z" transform="translate(16.616 9.667)"/>
    <path id="Path_25" data-name="Path 25" class="cls-2" d="M60.533,16.7a30.277,30.277,0,0,1,1.624,3.248,1.563,1.563,0,0,0,1.624,1.137c1.137.162,2.111.325,3.572.487-.974.974-1.949,1.786-2.76,2.76a1.844,1.844,0,0,0-.487,1.3,38.957,38.957,0,0,0,.65,3.9c-1.3-.65-2.273-1.3-3.41-1.786a1.793,1.793,0,0,0-1.3,0c-1.137.487-2.111,1.137-3.41,1.786a25.522,25.522,0,0,1,.65-3.735,1.233,1.233,0,0,0-.487-1.461l-2.6-2.6c1.3-.162,2.273-.325,3.41-.487.812-.162,1.3-.325,1.624-1.137A11.193,11.193,0,0,1,60.533,16.7Z" transform="translate(32.833 9.605)"/>
  </g>
</svg>
