<svg xmlns="http://www.w3.org/2000/svg" viewBox="2948.302 1345.963 74.983 134.36">
  <defs>
    <style>
      .cls-1 {
        fill: #fff;
      }

      .cls-2 {
        fill: none;
        stroke: #fff;
        stroke-miterlimit: 10;
        stroke-width: 0.843px;
      }
    </style>
  </defs>
  <g id="Group_7" data-name="Group 7" transform="translate(2948.302 1345.963)">
    <path id="Path_26" data-name="Path 26" class="cls-1" d="M49.083,104.04H26c-.5-2.007-1-3.847-1.672-5.854-2.843-10.035-7.526-19.4-12.878-28.265-2.843-4.85-5.854-9.7-8.028-14.885A48.143,48.143,0,0,1,.08,32.29C.916,22.59,5.6,15.064,12.958,8.876a38.417,38.417,0,0,1,19.4-8.53A37.2,37.2,0,0,1,56.61,5.2c7.024,4.181,12.544,9.868,15.721,17.394A35.7,35.7,0,0,1,74.84,37.642c-.167,9.2-3.01,17.561-7.526,25.422-3.345,5.854-6.857,11.707-10.035,17.728a106.4,106.4,0,0,0-8.2,22.077,2.732,2.732,0,0,1,0,1.171" transform="translate(0.118 0.017)"/>
    <path id="Path_27" data-name="Path 27" class="cls-2" d="M14.5,67.743c8.864-1,17.561-2.007,26.592-2.843v4.181a.754.754,0,0,1-.5.5c-4.014.5-8.028.836-12.042,1.338L15.5,72.426h-1V67.743Z" transform="translate(9.949 43.673)"/>
    <path id="Path_28" data-name="Path 28" class="cls-2" d="M14.5,77.493V72.81c8.864-1,17.561-2.007,26.592-3.01v4.181c0,.167-.5.5-.669.5-2.509.334-4.85.5-7.359.836-4.181.5-8.53,1-12.711,1.338A35.259,35.259,0,0,1,14.5,77.493Z" transform="translate(9.949 46.968)"/>
    <path id="Path_29" data-name="Path 29" class="cls-2" d="M15.734,76.9h23.08a4.018,4.018,0,0,1-1.505,2.843,9.416,9.416,0,0,1-5.017,2.007,26.686,26.686,0,0,1-12.042-.5,9.179,9.179,0,0,1-3.512-2.007c-.669-.5-.836-1.338-1.338-2.174Z" transform="translate(10.554 51.743)"/>
  </g>
</svg>
