<svg xmlns="http://www.w3.org/2000/svg" viewBox="3184.681 1345 164.643 133.274"><defs><style>.cls-1{fill:#fff}</style></defs><g id="Group_8" data-name="Group 8" transform="translate(3184.681 1345)"><path id="Path_30" data-name="Path 30" class="cls-1" d="M156.318 37.264a5.517 5.517 0 0 0 1.38-.767l2.76-2.76a2.284 2.284 0 0 1 3.374.153 2.372 2.372 0 0 1 .153 3.22l-.92.92c-1.38 1.38-2.607 2.607-3.067 4.907-.46 1.994-1.84 3.834-3.067 5.674a2.677 2.677 0 0 0-.613 1.84v73.608a4.412 4.412 0 0 1-1.533 3.834 5.707 5.707 0 0 1-3.067 1.073c-4.294.153-8.588 0-12.881 0H74.582a3.767 3.767 0 0 0-2.3.767c-.92.92-1.994 1.687-3.067 2.607a2.584 2.584 0 0 1-3.22.613 3.443 3.443 0 0 1-1.84-3.22v-.767H4.961A4.749 4.749 0 0 1-.1 123.907Q.13 64.561.053 5.214C.053 1.994 1.894 0 5.267 0H151.1c3.527 0 5.061 1.687 5.061 5.061v32.2zM50.352 114.86c.307 0 .613.153.92.153h22.236a1.83 1.83 0 0 0 1.38-.767 275.846 275.846 0 0 1 22.083-24.229c7.054-6.9 14.722-13.342 22.083-19.936 6.9-6.134 13.955-12.115 20.089-19.169a3.23 3.23 0 0 0 .767-1.994v-33.43a4.246 4.246 0 0 0-.153-1.38h-89.4zm92.164-68.241c2.147-1.994 3.987-3.987 6.134-5.827a14.541 14.541 0 0 1 4.14-2.607 1.79 1.79 0 0 0 1.073-1.687V5.367c0-1.994-.46-2.454-2.607-2.454H5.421c-2.454-.307-2.76.153-2.76 2.3v118.54c0 2.454.307 2.76 2.76 2.76h59.806c1.687 0 2.3-.92 3.067-1.994 1.227-1.994 2.147-3.987 3.374-5.981a3.208 3.208 0 0 1 .613-.92H51.119c-2.454 0-3.374-.92-3.374-3.374V14.722c0-2.454.92-3.374 3.374-3.374h88.023c2.607 0 3.527.92 3.527 3.374v31.9zm-64.254 79.742h72.995c1.994 0 2.607-.46 2.607-2.607V51.833c-.307.153-.46.153-.46.307-3.22 2.914-6.441 5.827-9.814 8.741a2.632 2.632 0 0 0-.92 2.3v50.606c0 2.914-.767 3.68-3.68 3.68H90.377a3.091 3.091 0 0 0-1.687.46c-3.527 2.914-6.9 5.674-10.428 8.434m61.494-61.34c-.153 0-.153-.153-.307-.153-5.827 6.441-11.655 12.881-17.482 19.476-7.668 8.741-15.488 17.482-24.229 25.3l-5.521 5.061h47.539V65.021zm-27.91 13.955l-.46.46c-4.14 3.68-8.434 7.361-12.421 11.348-5.214 5.061-10.121 10.428-14.875 15.8-4.14 4.754-8.128 9.814-11.961 14.875-1.84 2.454-1.687 2.454.46 4.6a1.094 1.094 0 0 0 1.687.153c2.914-1.994 5.827-3.987 8.588-6.134A281.229 281.229 0 0 0 113.84 90.63c1.38-1.687 2.914-3.22 4.447-5.061-3.68-.767-5.827-2.914-6.441-6.594m36.5-35.577c-.767.767-1.227 1.38-1.84 1.994-3.527 3.987-6.9 8.128-10.735 11.808-6.747 6.441-13.8 12.575-20.549 18.862a3.182 3.182 0 0 0-.92 1.534 4.972 4.972 0 0 0 4.6 5.674 2.294 2.294 0 0 0 2.3-.92c2.76-3.067 5.521-6.134 8.128-9.2a196.109 196.109 0 0 1 19.47-19.631c1.687-1.38 3.374-2.914 5.214-4.6-1.994-1.84-3.68-3.68-5.674-5.521m7.821 3.22c.613-1.534 1.38-3.22 1.994-4.754.307-.92-1.38-2.914-2.3-2.76a11.172 11.172 0 0 0-4.907 2.3c1.84 1.687 3.374 3.374 5.214 5.214m-87.41 80.509a32.122 32.122 0 0 0-2.147 2.607c-.153.307-.153.92.153 1.073a1.26 1.26 0 0 0 1.073.153 32.128 32.128 0 0 0 2.607-2.147l-1.687-1.687m91.55-89.25a20.823 20.823 0 0 1 1.84-1.84.922.922 0 0 0 .153-.613 1.545 1.545 0 0 1-.46-.153L160 37.111a6.443 6.443 0 0 1 .307.767" transform="translate(.1)"/><path id="Path_31" data-name="Path 31" class="cls-1" d="M39.817 48.235a17.578 17.578 0 0 1-17.942 17.482c-9.354 0-17.175-7.974-17.175-17.635a17.559 17.559 0 1 1 35.117.153M22.335 33.36A14.922 14.922 0 0 0 7.307 48.235a14.952 14.952 0 1 0 29.9.153A14.922 14.922 0 0 0 22.335 33.36" transform="translate(2.661 16.325)"/><path id="Path_32" data-name="Path 32" class="cls-1" d="M31.5 20.128v9.2c0 2.3-.92 3.22-3.22 3.22H12.02c-2.147 0-3.22-.92-3.22-3.067V10.467c0-2.147.92-3.067 3.22-3.067h16.256c2.3 0 3.22.92 3.22 3.22v9.508m-2.76-10.121H11.56v19.936h17.176z" transform="translate(4.848 3.948)"/><path id="Path_33" data-name="Path 33" class="cls-1" d="M80.7 51.279a14.564 14.564 0 0 1 1.534-2.607 277.669 277.669 0 0 1 9.508-9.508 6.017 6.017 0 0 1 2.147-1.227 1.619 1.619 0 0 1 2.147 2.147 7.08 7.08 0 0 1-1.38 2.3c-3.067 3.067-6.134 6.287-9.2 9.2a6.7 6.7 0 0 1-2.76 1.38c-1.227.307-1.687-.46-1.994-1.687m2.914-.767l-.307-.307 9.968-9.968.307.307c-3.22 3.374-6.594 6.594-9.968 9.968" transform="translate(43.207 20.183)"/><path id="Path_34" data-name="Path 34" class="cls-1" d="M20.095 34.8a11.1 11.1 0 0 1 11.194 10.888A11.2 11.2 0 1 1 20.095 34.8m8.588 11.195a8.886 8.886 0 0 0-8.434-8.741 8.59 8.59 0 1 0-.307 17.175 8.479 8.479 0 0 0 8.741-8.434" transform="translate(4.902 18.566)"/><path id="Path_35" data-name="Path 35" class="cls-1" d="M18.861 19.56h-5.674c-.92 0-1.687-.307-1.687-1.38s.767-1.38 1.687-1.38h11.5c.92 0 1.687.307 1.687 1.227 0 .767-.613 1.38-1.84 1.38a35.548 35.548 0 0 1-5.674.153" transform="translate(6.289 8.963)"/><path id="Path_36" data-name="Path 36" class="cls-1" d="M18.761 15.207h-5.674c-.92 0-1.687-.307-1.687-1.227 0-1.073.767-1.38 1.687-1.38h11.5c.92 0 1.687.307 1.687 1.38 0 .92-.767 1.227-1.687 1.227h-5.826" transform="translate(6.235 6.722)"/></g></svg>