<svg xmlns="http://www.w3.org/2000/svg" viewBox="0 0 527.47 45.8">
  <title>Asset 1</title><g id="Layer_2" data-name="Layer 2"><g id="Layer_1-2" data-name="Layer 1"><path d="M0,1H17.38l4.48,17.62L27.15.88H41.64L47,18.82,51.65,1H68.79l-13.37,44H40.2L34.35,26.35l-6,18.74H13.21Z"/><path d="M69.87,23.14V23c0-13.05,9.37-23,22.5-23,15.54,0,22.74,10.81,22.74,24.1,0,1,0,2.08-.08,3H86.92A8.18,8.18,0,0,0,95.17,33c3.28,0,6-1.52,8.89-4.48l9.77,7.77c-4.32,5.61-10.49,9.53-19.94,9.53C79.56,45.8,69.87,36.76,69.87,23.14Zm28.67-4c-.4-4.16-2.88-6.57-6.09-6.57-3,0-5.21,2.56-5.77,6.57Z"/><path d="M141.77,32.35v-.16c0-8.73,6.49-13.61,16.66-13.61a34.07,34.07,0,0,1,10.33,1.6v-.72c0-4-2.48-6.33-8.09-6.33a31.66,31.66,0,0,0-12.09,2.48l-3.2-12.09A50,50,0,0,1,163.79.32c8.89,0,14.65,1.84,18.5,5.69,3.28,3.28,4.56,7.53,4.56,13.85v24.9H168.68v-4.4a16.48,16.48,0,0,1-12.57,5.45C147.7,45.8,141.77,41,141.77,32.35Zm27.15-3.76V26.75a12.52,12.52,0,0,0-4.16-.72c-3.6,0-5.61,2.16-5.61,4.88v.16a4.06,4.06,0,0,0,4.16,4.24C166.52,35.31,168.92,32.75,168.92,28.59Z"/><path d="M194.45,1h18.18V9.85C215.11,3.92,219.11.08,226.32.4V19.7H224.4c-7.69,0-11.77,4.24-11.77,13.93V44.76H194.45Z"/><path d="M229.49,23.14V23c0-13.05,9.37-23,22.5-23,15.54,0,22.74,10.81,22.74,24.1,0,1,0,2.08-.08,3H246.54A8.18,8.18,0,0,0,254.79,33c3.28,0,6-1.52,8.89-4.48l9.77,7.77c-4.32,5.61-10.49,9.53-19.94,9.53C239.18,45.8,229.49,36.76,229.49,23.14Zm28.67-4c-.4-4.16-2.88-6.57-6.09-6.57-3,0-5.21,2.56-5.77,6.57Z"/><path d="M303.08,1h18.18V6.89A16.65,16.65,0,0,1,334.47,0c5.93,0,10.49,2.56,12.89,7.21C351,3,355.45,0,362.17,0c9.37,0,15.13,6.09,15.13,15.94V44.76H359.13V21.62c0-3.68-2.16-5.77-4.8-5.77s-5,2.08-5,5.77V44.76H331.1V21.62c0-3.68-2.16-5.77-4.8-5.77s-5,2.08-5,5.77V44.76H303.08Z"/><path d="M382.79,32.35v-.16c0-8.73,6.49-13.61,16.66-13.61a34.07,34.07,0,0,1,10.33,1.6v-.72c0-4-2.48-6.33-8.09-6.33a31.66,31.66,0,0,0-12.09,2.48L386.4,3.52A50,50,0,0,1,404.81.32c8.89,0,14.65,1.84,18.5,5.69,3.28,3.28,4.56,7.53,4.56,13.85v24.9H409.7v-4.4a16.48,16.48,0,0,1-12.57,5.45C388.72,45.8,382.79,41,382.79,32.35Zm27.15-3.76V26.75a12.52,12.52,0,0,0-4.16-.72c-3.6,0-5.61,2.16-5.61,4.88v.16a4.06,4.06,0,0,0,4.16,4.24C407.54,35.31,409.94,32.75,409.94,28.59Z"/>
  <path d="M432.13,39.48l6.17-10.33A31.68,31.68,0,0,0,454.48,34c1.76,0,2.64-.4,2.64-1.44v-.16c0-.88-.8-1.44-5.21-2.56-11.05-2.72-17.86-5.69-17.86-14.73V15c0-9.61,7.69-15,19.06-15a38.81,38.81,0,0,1,19.62,5L467,15.86c-4.64-2.56-10.25-4.08-13.93-4.08-1.76,0-2.56.48-2.56,1.36v.16c0,.88,1,1.44,5.37,2.56,11.05,2.72,17.7,5.77,17.7,14.73v.16c0,9.53-7.13,15.05-19,15.05A40,40,0,0,1,432.13,39.48Z"/>
  <path d="M475.41,1h19.06l7,21.94L508.65,1h18.82l-17.7,44H493.11Z"/></g></g></svg>
