<svg xmlns="http://www.w3.org/2000/svg" viewBox="292.529 443.141 1335.851 115.972">
  <defs>
    <style>
      .cls-1 {
        stroke: #95989a;
        stroke-width: 1px;
      }
    </style>
  </defs>
  <path id="Path_47" data-name="Path 47" class="cls-1" d="M33.366.8H71.355L86.43-46.23,101.1.8h38.19l33.567-110.55H129.846L118.188-65.124l-13.467-45.024H68.34L55.074-65.526l-11.256-44.22H.2ZM242,2.613c23.718,0,39.2-9.849,50.049-23.919L267.531-40.8c-7.236,7.437-14.07,11.256-22.311,11.256-9.849,0-17.487-5.025-20.7-14.673h70.551c.2-2.412.2-5.226.2-7.638,0-33.366-18.09-60.5-57.084-60.5-32.964,0-56.481,24.924-56.481,57.687v.4C181.7-20.1,206.025,2.613,242,2.613ZM223.914-64.32c1.407-10.05,6.834-16.482,14.472-16.482,8.04,0,14.271,6.03,15.276,16.482ZM398.583,2.613A41.365,41.365,0,0,0,430.14-11.055V0h45.627V-62.511c0-15.879-3.216-26.532-11.457-34.773-9.648-9.648-24.12-14.271-46.431-14.271-19.1,0-33.567,3.216-46.23,8.04l8.04,30.351c9.648-3.819,19.1-6.231,30.351-6.231,14.07,0,20.3,5.829,20.3,15.879v1.809c-4.824-2.01-16.683-4.02-25.929-4.02-25.527,0-41.808,12.261-41.808,34.17v.4C362.6-9.447,377.478,2.613,398.583,2.613Zm18.09-26.331a10.189,10.189,0,0,1-10.452-10.653v-.4c0-6.834,5.025-12.261,14.07-12.261a31.425,31.425,0,0,1,10.452,1.809V-40.6C430.743-30.15,424.713-23.718,416.673-23.718ZM493.857,0h45.627V-27.939c0-24.321,10.251-34.974,29.547-34.974h4.824v-48.441c-18.09-.8-28.14,8.844-34.371,23.718v-22.11H493.857ZM643.8,2.613c23.718,0,39.2-9.849,50.049-23.919L669.33-40.8c-7.236,7.437-14.07,11.256-22.311,11.256-9.849,0-17.487-5.025-20.7-14.673h70.551c.2-2.412.2-5.226.2-7.638,0-33.366-18.09-60.5-57.084-60.5-32.964,0-56.481,24.924-56.481,57.687v.4C583.5-20.1,607.824,2.613,643.8,2.613ZM625.713-64.32C627.12-74.37,632.547-80.8,640.185-80.8c8.04,0,14.271,6.03,15.276,16.482ZM768.624,0h45.627V-58.089c0-9.246,6.03-14.472,12.663-14.472s12.06,5.226,12.06,14.472V0H884.6V-58.089c0-9.246,6.03-14.472,12.663-14.472s12.06,5.226,12.06,14.472V0h45.627V-72.36c0-24.723-14.472-40-37.989-40-16.884,0-27.939,7.638-37.185,18.09-6.03-11.658-17.487-18.09-32.361-18.09-15.075,0-26.13,8.241-33.165,17.286v-14.673H768.624ZM1004.8,2.613a41.365,41.365,0,0,0,31.557-13.668V0h45.627V-62.511c0-15.879-3.216-26.532-11.457-34.773-9.648-9.648-24.12-14.271-46.431-14.271-19.095,0-33.567,3.216-46.23,8.04l8.04,30.351c9.648-3.819,19.1-6.231,30.351-6.231,14.07,0,20.3,5.829,20.3,15.879v1.809c-4.824-2.01-16.683-4.02-25.929-4.02-25.527,0-41.808,12.261-41.808,34.17v.4C968.82-9.447,983.694,2.613,1004.8,2.613Zm18.09-26.331a10.189,10.189,0,0,1-10.452-10.653v-.4c0-6.834,5.025-12.261,14.07-12.261a31.425,31.425,0,0,1,10.452,1.809V-40.6C1036.959-30.15,1030.929-23.718,1022.889-23.718ZM1148.514,2.613c29.748,0,47.637-13.869,47.637-37.788v-.4c0-22.512-16.683-30.15-44.421-36.984-11.055-2.814-13.467-4.221-13.467-6.432v-.4c0-2.211,2.01-3.417,6.432-3.417,9.246,0,23.316,3.819,34.974,10.251L1194.141-99.7c-13.266-8.04-31.155-12.663-49.245-12.663-28.542,0-47.838,13.467-47.838,37.587v.4c0,22.713,17.085,30.15,44.823,36.984,11.055,2.814,13.065,4.221,13.065,6.432v.4c0,2.613-2.211,3.618-6.633,3.618-12.462,0-27.336-4.02-40.6-12.261l-15.477,25.929C1107.912-2.814,1127.208,2.613,1148.514,2.613ZM1248.411.8h41.808l44.421-110.55h-47.235l-17.889,55.074-17.688-55.074H1203.99Z" transform="translate(293 556)"/>
</svg>
