<svg xmlns="http://www.w3.org/2000/svg" viewBox="87 67 71.228 73.734">
  <g id="Group_1" data-name="Group 1" transform="translate(87 67)">
    <path id="Path_1" data-name="Path 1" d="M25.757,32.844V12.795l-9.5,8.574L6.9,12.795V32.844H.3V0H2.542L16.26,12.4,29.978,0h2.374V32.844Z" transform="translate(0.096)"/>
    <path id="Path_2" data-name="Path 2" d="M32.844,37.8H12.795l20.049,21.9.132,3.43H0V56.13l20.445.264L0,33.574V31.2H32.844Z" transform="translate(0 9.954)"/>
    <path id="Path_3" data-name="Path 3" d="M46.7,0,62.263,32.844H55.008L45.643,12.927,35.487,32.844H28.1L44.852,0Z" transform="translate(8.965)"/>
    <path id="Path_4" data-name="Path 4" d="M44.852,63.844,28.1,31h7.387L45.643,51.049,55.008,31h7.255L46.7,63.844Z" transform="translate(8.965 9.89)"/>
  </g>
</svg>
